<svg xmlns="http://www.w3.org/2000/svg" viewBox="0 0 300 66.87"><defs><style>.a99026c4-f08e-47e4-92cc-2af51fc8cd87{fill:#3c3c3c;}.\37 dd8d76f-4429-4726-8902-7ac041c98aba{fill:#00983a;}.ea2da3ee-f385-4173-b7d0-8026be359de4{fill:#fff;}.\34 c530056-72e3-4532-b520-123fc28a2915{fill:#e4032e;}.\37 1398e40-971e-446d-884e-0001c9c7f087{fill:#004f9f;}</style></defs><title>logo-hor</title><g id="706d9f74-5f83-4e39-921c-52a9027bc26f" data-name="Ebene 2"><g id="b9fe00eb-12e8-4105-a39b-209f18a14cd1" data-name="Layer 3"><path class="a99026c4-f08e-47e4-92cc-2af51fc8cd87" d="M105.74,26.08h4.86c2.44,0,3.33,1.46,3.33,3.15a2.34,2.34,0,0,1-1.62,2.52,2.48,2.48,0,0,1,1.8,2.66c0,2.19-1,3.46-3.47,3.46h-4.91Zm4.73,4.67a1.17,1.17,0,0,0,1.24-1.34c0-1.09-.67-1.35-1.24-1.35H108v2.68Zm.09,5.13c.69,0,1.3-.32,1.3-1.58,0-.87-.35-1.65-1.3-1.65H108v3.23Z"/><path class="a99026c4-f08e-47e4-92cc-2af51fc8cd87" d="M115.45,28.53A2.25,2.25,0,0,1,118,26.08s4.15.12,5.19.26v1.87h-4.66c-.84,0-.84.47-.84.9v1.84l4.76.17V33l-4.76.15V35c0,.85.53.84,1,.84h4.5v1.85c-.91.12-5,.27-5,.27-1.05,0-2.72-.19-2.72-2.37Z"/><path class="a99026c4-f08e-47e4-92cc-2af51fc8cd87" d="M124.48,26.08h5.16c1.84,0,3.21.86,3.21,3.68S131.63,33,131,33.23l2.23,4.65h-2.54l-2-4.46-2-.23v4.69h-2.26Zm4.94,5.33c.79,0,1.16-.23,1.16-1.66s-.45-1.67-1.16-1.67h-2.67v3.33Z"/><path class="a99026c4-f08e-47e4-92cc-2af51fc8cd87" d="M134.21,26.08h2.26v6.64c0,2.7.6,3.16,2.29,3.16,1.51,0,2.19-.55,2.19-3.16V26.08h2.27v6.64c0,5.21-2.51,5.24-4.46,5.24-2.19,0-4.54.13-4.54-5.24Z"/><path class="a99026c4-f08e-47e4-92cc-2af51fc8cd87" d="M144.88,28.57a2.29,2.29,0,0,1,2.56-2.49s4.15.12,5.19.26v1.87H148c-.84,0-.84.47-.84.9v1.84l4.76.17V33l-4.76.15v4.75h-2.26Z"/><path class="a99026c4-f08e-47e4-92cc-2af51fc8cd87" d="M153.89,26.08h2.26V35c0,.85.53.84,1,.84h4v2.08h-4.84c-1.29,0-2.46-.48-2.46-2.3Z"/><path class="a99026c4-f08e-47e4-92cc-2af51fc8cd87" d="M162.43,26.08h2.26v11.8h-2.26Z"/><path class="a99026c4-f08e-47e4-92cc-2af51fc8cd87" d="M170.13,26a13.53,13.53,0,0,1,4.11.54v1.77s-2-.22-3.58-.22-2.29.38-2.29,3.95c0,2.64.44,3.92,2.3,3.92,1.69,0,3.57-.13,3.57-.13v1.77a13.58,13.58,0,0,1-4.11.44c-3,0-4-2.29-4-6S166.92,26,170.13,26Z"/><path class="a99026c4-f08e-47e4-92cc-2af51fc8cd87" d="M175.48,26.08h2.26v5.05h4V26.08H184v11.8h-2.26V33.21h-4v4.67h-2.26Z"/><path class="a99026c4-f08e-47e4-92cc-2af51fc8cd87" d="M185.73,28.53a2.25,2.25,0,0,1,2.56-2.45s4.15.12,5.19.26v1.87h-4.66c-.84,0-.84.47-.84.9v1.84l4.76.17V33l-4.76.15V35c0,.85.53.84,1,.84h4.5v1.85c-.91.12-5,.27-5,.27-1.05,0-2.72-.19-2.72-2.37Z"/><path class="a99026c4-f08e-47e4-92cc-2af51fc8cd87" d="M198.76,29c0-2.34,1.39-3,3.19-3a17.91,17.91,0,0,1,4.56.47v1.77c-1-.09-3.36-.16-3.94-.16-1,0-1.56,0-1.56,1.14v.58c0,.93.36,1.14,1.27,1.14h1.86c2.31,0,2.79,1.82,2.79,3.13v.79c0,2.68-1.67,3.17-3.26,3.17a15.69,15.69,0,0,1-4.55-.48V35.75c.64.06,2.61.18,4.11.18.68,0,1.45-.11,1.45-1v-.64c0-.67-.2-1.1-1.06-1.1h-1.81c-2.84,0-3-2.1-3-3.13Z"/><path class="a99026c4-f08e-47e4-92cc-2af51fc8cd87" d="M212.08,26a13.53,13.53,0,0,1,4.11.54v1.77s-2-.22-3.58-.22-2.29.38-2.29,3.95c0,2.64.44,3.92,2.3,3.92,1.69,0,3.57-.13,3.57-.13v1.77a13.58,13.58,0,0,1-4.11.44c-3,0-4-2.29-4-6S208.87,26,212.08,26Z"/><path class="a99026c4-f08e-47e4-92cc-2af51fc8cd87" d="M217.43,26.08h2.26v5.05h4V26.08H226v11.8h-2.26V33.21h-4v4.67h-2.26Z"/><path class="a99026c4-f08e-47e4-92cc-2af51fc8cd87" d="M227.68,26.08h2.26v6.64c0,2.7.6,3.16,2.29,3.16,1.51,0,2.19-.55,2.19-3.16V26.08h2.27v6.64c0,5.21-2.51,5.24-4.46,5.24-2.19,0-4.54.13-4.54-5.24Z"/><path class="a99026c4-f08e-47e4-92cc-2af51fc8cd87" d="M238.38,26.08h2.26V35c0,.85.53.84,1,.84h4v2.08h-4.84c-1.29,0-2.46-.48-2.46-2.3Z"/><path class="a99026c4-f08e-47e4-92cc-2af51fc8cd87" d="M246.9,28.53a2.25,2.25,0,0,1,2.56-2.45s4.15.12,5.19.26v1.87H250c-.84,0-.84.47-.84.9v1.84l4.76.17V33l-4.76.15V35c0,.85.53.84,1,.84h4.5v1.85c-.91.12-5,.27-5,.27-1.05,0-2.72-.19-2.72-2.37Z"/><path class="a99026c4-f08e-47e4-92cc-2af51fc8cd87" d="M260.11,26.08h2.26v11.8h-2.26Z"/><path class="a99026c4-f08e-47e4-92cc-2af51fc8cd87" d="M263.51,26.08h8.72v2.08H269v9.72H266.7V28.16h-3.18Z"/><path class="a99026c4-f08e-47e4-92cc-2af51fc8cd87" d="M273.42,28.53A2.25,2.25,0,0,1,276,26.08s4.15.12,5.19.26v1.87h-4.66c-.84,0-.84.47-.84.9v1.84l4.76.17V33l-4.76.15V35c0,.85.53.84,1,.84h4.5v1.85c-.91.12-5,.27-5,.27-1.05,0-2.72-.19-2.72-2.37Z"/><path class="a99026c4-f08e-47e4-92cc-2af51fc8cd87" d="M286.09,26a13.53,13.53,0,0,1,4.11.54v1.77s-2-.22-3.58-.22-2.29.38-2.29,3.95c0,2.64.44,3.92,2.3,3.92,1.69,0,3.57-.13,3.57-.13v1.77a13.58,13.58,0,0,1-4.11.44c-3,0-4-2.29-4-6S282.88,26,286.09,26Z"/><path class="a99026c4-f08e-47e4-92cc-2af51fc8cd87" d="M291.44,26.08h2.26v5.05h4V26.08H300v11.8h-2.26V33.21h-4v4.67h-2.26Z"/><path class="a99026c4-f08e-47e4-92cc-2af51fc8cd87" d="M105.74,46.1a1.28,1.28,0,0,1,1.41-1.46l3.47.16v.48h-3.47c-.62,0-.77.33-.77.82v2.34l3.8.09V49l-3.8.09v2.35c0,.74.46.77.89.77h3.36v.48l-3.36.16c-.74,0-1.52-.15-1.52-1.41Z"/><path class="a99026c4-f08e-47e4-92cc-2af51fc8cd87" d="M111.86,44.07h.64v6.66c0,1.24.41,1.4.77,1.48,0,0,.86.2.94.2v.44h-.91c-.89,0-1.45-.57-1.45-2.12Z"/><path class="a99026c4-f08e-47e4-92cc-2af51fc8cd87" d="M115.28,44h.62v3.21a7,7,0,0,1,2.21-.45c1.69,0,2,1.57,2,3.09,0,1.37-.37,3-2,3a4.85,4.85,0,0,1-2.2-.73l-.19.66h-.44Zm2.82,8.23c.81,0,1.36-.75,1.36-2.38,0-2-.57-2.46-1.36-2.46a7.77,7.77,0,0,0-2.2.31v4A5.27,5.27,0,0,0,118.11,52.27Z"/><path class="a99026c4-f08e-47e4-92cc-2af51fc8cd87" d="M121.34,45.27a.21.21,0,0,1,.22-.23H122a.21.21,0,0,1,.21.23v.64a.19.19,0,0,1-.21.22h-.41a.21.21,0,0,1-.22-.22Zm.09,1.62h.64v6h-.64Z"/><path class="a99026c4-f08e-47e4-92cc-2af51fc8cd87" d="M123.54,46.89H124l.2.69a4.3,4.3,0,0,1,2.27-.8,1.81,1.81,0,0,1,1.84,1.91v4.15h-.64V48.7a1.15,1.15,0,0,0-1.2-1.27,4.41,4.41,0,0,0-2.27.65v4.76h-.64Z"/><path class="a99026c4-f08e-47e4-92cc-2af51fc8cd87" d="M129.43,48.3c0-.92.39-1.46,1.55-1.46.58,0,2.23.1,2.81.15v.48H131c-.79,0-.91.31-.91.83v.52c0,.73.35.75.91.75h1.66A1.31,1.31,0,0,1,134.09,51v.55c0,1.22-.74,1.4-1.46,1.4-.55,0-2.53-.13-3-.18v-.46h3a.69.69,0,0,0,.82-.76V51c0-.45-.22-.75-.82-.75H131c-1.05,0-1.55-.24-1.55-1.39Z"/><path class="a99026c4-f08e-47e4-92cc-2af51fc8cd87" d="M137.71,46.85c1.39,0,2.27.13,2.27,2.11,0,.87-.49,1.27-1.53,1.27h-2.59c0,1.69.41,2,1.32,2a18.1,18.1,0,0,0,2.69-.15v.48a9.35,9.35,0,0,1-2.69.31c-1.52,0-2-.77-2-3.06C135.22,47.2,135.93,46.85,137.71,46.85Zm.74,2.75c.54,0,.89-.13.89-.64,0-1.35-.38-1.47-1.63-1.47s-1.85.12-1.85,2.11Z"/><path class="a99026c4-f08e-47e4-92cc-2af51fc8cd87" d="M141.18,44.07h.64v6.66c0,1.24.41,1.4.77,1.48,0,0,.86.2.94.2v.44h-.91c-.89,0-1.45-.57-1.45-2.12Z"/><path class="a99026c4-f08e-47e4-92cc-2af51fc8cd87" d="M148,44.64l2.54,7.16,2.27-7.16h.72l-.9,2.88,1.61,4.33,2.33-7.2h.69l-2.66,8.21h-.68l-1.62-4.28-1.42,4.28h-.68l-2.9-8.21Z"/><path class="a99026c4-f08e-47e4-92cc-2af51fc8cd87" d="M158.24,45.27a.21.21,0,0,1,.22-.23h.41a.21.21,0,0,1,.21.23v.64a.19.19,0,0,1-.21.22h-.41a.21.21,0,0,1-.22-.22Zm.09,1.62H159v6h-.64Z"/><path class="a99026c4-f08e-47e4-92cc-2af51fc8cd87" d="M160.42,44.07h.64v6.66c0,1.24.41,1.4.77,1.48,0,0,.86.2.94.2v.44h-.91c-.89,0-1.45-.57-1.45-2.12Z"/><path class="a99026c4-f08e-47e4-92cc-2af51fc8cd87" d="M163.84,44.06h.64v3.53a4.3,4.3,0,0,1,2.27-.8,1.81,1.81,0,0,1,1.84,1.91v4.15H168V48.7a1.14,1.14,0,0,0-1.2-1.27,4.41,4.41,0,0,0-2.27.65v4.76h-.64Z"/><path class="a99026c4-f08e-47e4-92cc-2af51fc8cd87" d="M172.36,46.85c1.39,0,2.27.13,2.27,2.11,0,.87-.49,1.27-1.53,1.27h-2.59c0,1.69.41,2,1.32,2a18.1,18.1,0,0,0,2.69-.15v.48a9.35,9.35,0,0,1-2.69.31c-1.52,0-2-.77-2-3.06C169.88,47.2,170.59,46.85,172.36,46.85Zm.74,2.75c.54,0,.89-.13.89-.64,0-1.35-.38-1.47-1.63-1.47s-1.85.12-1.85,2.11Z"/><path class="a99026c4-f08e-47e4-92cc-2af51fc8cd87" d="M175.84,44.07h.64v6.66c0,1.24.41,1.4.77,1.48,0,0,.86.2.94.2v.44h-.91c-.89,0-1.45-.57-1.45-2.12Z"/><path class="a99026c4-f08e-47e4-92cc-2af51fc8cd87" d="M179.26,46.89h.44l.2.71a4.16,4.16,0,0,1,2.22-.79,1.76,1.76,0,0,1,1.63.89,4.18,4.18,0,0,1,2.48-.89,1.81,1.81,0,0,1,1.84,1.91v4.12h-.64V48.73a1.18,1.18,0,0,0-1.2-1.27,4.14,4.14,0,0,0-2.33.68,2.88,2.88,0,0,1,.06.58v4.13h-.64V48.73a1.19,1.19,0,0,0-1.21-1.27,4.28,4.28,0,0,0-2.22.65v4.75h-.64Z"/><path class="a99026c4-f08e-47e4-92cc-2af51fc8cd87" d="M189.23,48.3c0-.92.39-1.46,1.55-1.46.58,0,2.23.1,2.81.15v.48h-2.81c-.79,0-.91.31-.91.83v.52c0,.73.35.75.91.75h1.66A1.31,1.31,0,0,1,193.89,51v.55c0,1.22-.74,1.4-1.46,1.4-.55,0-2.53-.13-3-.18v-.46h3a.69.69,0,0,0,.82-.76V51c0-.45-.22-.75-.82-.75h-1.66c-1.05,0-1.55-.24-1.55-1.39Z"/><path class="a99026c4-f08e-47e4-92cc-2af51fc8cd87" d="M195.09,44h.62v3.21a7,7,0,0,1,2.21-.45c1.69,0,2,1.57,2,3.09,0,1.37-.37,3-2,3a4.85,4.85,0,0,1-2.2-.73l-.19.66h-.44Zm2.82,8.23c.81,0,1.36-.75,1.36-2.38,0-2-.57-2.46-1.36-2.46a7.77,7.77,0,0,0-2.2.31v4A5.27,5.27,0,0,0,197.92,52.27Z"/><path class="a99026c4-f08e-47e4-92cc-2af51fc8cd87" d="M201.18,46.89h.64V51A1.15,1.15,0,0,0,203,52.3a4.41,4.41,0,0,0,2.27-.65V46.89h.64v6h-.44l-.2-.7a4.3,4.3,0,0,1-2.27.8A1.81,1.81,0,0,1,201.18,51Z"/><path class="a99026c4-f08e-47e4-92cc-2af51fc8cd87" d="M207.42,46.89h.43l.21.75a4.39,4.39,0,0,1,2.3-.82,2.61,2.61,0,0,1,.83.09v.63a4.24,4.24,0,0,0-.83-.07,4.68,4.68,0,0,0-2.3.69v4.68h-.64Z"/><path class="a99026c4-f08e-47e4-92cc-2af51fc8cd87" d="M212.81,50.66a1.8,1.8,0,0,1-.76-1.67c0-1.44.68-2.12,1.94-2.12h3.5v.47l-1,.17a2,2,0,0,1,.46,1.48,1.87,1.87,0,0,1-1.85,2.09h-1.75c-.18,0-.64,0-.64.44s.34.46.61.46h2.36a1.4,1.4,0,0,1,1.51,1.53v.67a1.51,1.51,0,0,1-1.68,1.69H213.8A1.61,1.61,0,0,1,212,54.15v-1l.34-.88a.93.93,0,0,1-.31-.74A.87.87,0,0,1,212.81,50.66Zm1,4.57h1.68a.92.92,0,0,0,1-1v-.63c0-.57-.19-.93-1-.93h-2.25a1.07,1.07,0,0,1-.65-.17v1.69A1,1,0,0,0,213.8,55.23Zm.11-4.79H215A1.26,1.26,0,0,0,216.28,49c0-1-.33-1.48-1.11-1.48h-1.23c-1,0-1.26.7-1.26,1.48S213,50.44,213.91,50.44Z"/><path class="7dd8d76f-4429-4726-8902-7ac041c98aba" d="M16.17,33V52.2a4,4,0,0,1-1.28-.47l-1-.58V38.74l-8.8-6.09V20.52l7.17-4.14V30.06Zm-12.81.52v-12l-1.22.71A4.54,4.54,0,0,0,0,25.93V40.66a4.54,4.54,0,0,0,2.14,3.7l10,5.79V39.64ZM31.92,22.23l-4-2.32V41.45l-6,4.15v4.55l10-5.78a4.54,4.54,0,0,0,2.14-3.7V25.93A4.54,4.54,0,0,0,31.92,22.23ZM26.17,40.54V18.91l-7-4a4.54,4.54,0,0,0-4.27,0l-.89.51V29.2l3.9,3v20a4.72,4.72,0,0,0,1.26-.45l1-.58V44.69Z"/><path class="ea2da3ee-f385-4173-b7d0-8026be359de4" d="M13.9,38.74V51.15l-1.73-1V39.64l-8.8-6.09v-12l1.73-1V32.65Zm14,2.71V19.91l-1.73-1V40.54l-6,4.15v6.46l1.73-1V45.6ZM14,29.2V15.38l-1.73,1V30.06l3.9,3V52.2a4.45,4.45,0,0,0,1.73,0v-20Z"/><path class="4c530056-72e3-4532-b520-123fc28a2915" d="M38.81,50.89v-6c1.61-1.56,3.28-2.68,5-2.68,2.47,0,4.52,2.71,6.67,5.68-2.15,3-4.2,5.68-6.67,5.68C42.09,53.57,40.42,52.45,38.81,50.89ZM67.94,49.3c-2.49,3.14-5.11,6-8.32,6-3.39,0-5.83-2.85-8.1-5.94-2.22,3-4.57,5.94-7.75,5.94a8,8,0,0,1-5-2.09v2A4.55,4.55,0,0,0,40.95,59L53.7,66.32a4.54,4.54,0,0,0,4.27,0L70.73,59a4.54,4.54,0,0,0,2.14-3.7v-.8A22.61,22.61,0,0,1,67.94,49.3ZM69,47.89a33.14,33.14,0,0,0,3.82,4.39V43.5A33.14,33.14,0,0,0,69,47.89ZM51.52,46.42c2.28-3.08,4.71-5.94,8.1-5.94,3.21,0,5.83,2.87,8.32,6a22.61,22.61,0,0,1,4.92-5.15v-.8a4.55,4.55,0,0,0-2.14-3.7L58,29.46a4.54,4.54,0,0,0-4.27,0L40.95,36.83a4.54,4.54,0,0,0-2.14,3.7v2a8,8,0,0,1,5-2.09C46.95,40.48,49.3,43.38,51.52,46.42Zm8.1-4.2c-2.71,0-4.92,2.78-7,5.68,2.11,2.9,4.33,5.68,7,5.68,2.53,0,4.92-2.74,7.22-5.68C64.54,45,62.15,42.22,59.62,42.22Z"/><path class="71398e40-971e-446d-884e-0001c9c7f087" d="M68.55,7.91l5.21-3,2,1.14a1.33,1.33,0,0,1,.6,1v7.15a1.33,1.33,0,0,1-.6,1l-6.19,3.58A1.1,1.1,0,0,1,69,19a1.54,1.54,0,0,1-.64-.15h0l-1.93-1.11V11.61A4.54,4.54,0,0,1,68.55,7.91Zm29.78,0L85.57.55A4.86,4.86,0,0,0,83.36,0,4.06,4.06,0,0,0,81.3.55L75.49,3.9l1.11.64a3,3,0,0,1,1.47,2.55v7.15a2.77,2.77,0,0,1-.1.7l2,1a2.78,2.78,0,0,1,.49-.37L86.68,12a2.83,2.83,0,0,1,1.43-.38,2.74,2.74,0,0,1,1.35.29l6.19,3.58a3.2,3.2,0,0,1,1.63,2.64v7.15a3,3,0,0,1-1.47,2.55L89.62,31.4a2.83,2.83,0,0,1-1.43.38h0a3.23,3.23,0,0,1-1.51-.38l-6.19-3.58A3,3,0,0,1,79,25.28V18.13a2.77,2.77,0,0,1,.09-.69l-2-1a2.76,2.76,0,0,1-.47.36l-6.19,3.58a2.83,2.83,0,0,1-1.43.38h0a3.23,3.23,0,0,1-1.51-.38l-1.06-.61v6.58A4.54,4.54,0,0,0,68.55,30L81.3,37.41a4.86,4.86,0,0,0,2.22.55,4.06,4.06,0,0,0,2.06-.55L98.33,30a4.54,4.54,0,0,0,2.14-3.7V11.61A4.54,4.54,0,0,0,98.33,7.91Zm-17,18.41,6.19,3.58h0a1.54,1.54,0,0,0,.64.15,1.1,1.1,0,0,0,.57-.15l6.19-3.58a1.33,1.33,0,0,0,.6-1V18.13A1.46,1.46,0,0,0,94.78,17l-6.19-3.57a1.87,1.87,0,0,0-.48-.06,1.1,1.1,0,0,0-.57.15l-6.19,3.58a1.33,1.33,0,0,0-.6,1v7.15A1.33,1.33,0,0,0,81.35,26.32Z"/><path class="ea2da3ee-f385-4173-b7d0-8026be359de4" d="M69,20.75h0a2.83,2.83,0,0,0,1.43-.38l6.19-3.58a2.76,2.76,0,0,0,.47-.36l2,1a2.77,2.77,0,0,0-.09.69v7.15a3,3,0,0,0,1.47,2.55l6.19,3.58a3.23,3.23,0,0,0,1.51.38h0a2.83,2.83,0,0,0,1.43-.38l6.19-3.58a3,3,0,0,0,1.47-2.55V18.13a3.2,3.2,0,0,0-1.63-2.64l-6.19-3.58a2.74,2.74,0,0,0-1.35-.29,2.83,2.83,0,0,0-1.43.38l-6.19,3.58a2.78,2.78,0,0,0-.49.37l-2-1a2.77,2.77,0,0,0,.1-.7V7.09A3,3,0,0,0,76.6,4.54L75.49,3.9l-1.73,1,2,1.14a1.33,1.33,0,0,1,.6,1v7.15a1.33,1.33,0,0,1-.6,1l-6.19,3.58A1.1,1.1,0,0,1,69,19a1.54,1.54,0,0,1-.64-.15h0l-1.93-1.11v2l1.06.61A3.23,3.23,0,0,0,69,20.75Zm11.77-2.63a1.33,1.33,0,0,1,.6-1l6.19-3.58a1.1,1.1,0,0,1,.57-.15,1.87,1.87,0,0,1,.48.06L94.78,17a1.46,1.46,0,0,1,.77,1.14v7.15a1.33,1.33,0,0,1-.6,1L88.75,29.9a1.1,1.1,0,0,1-.57.15,1.53,1.53,0,0,1-.64-.15h0l-6.19-3.58a1.33,1.33,0,0,1-.6-1Z"/><path class="ea2da3ee-f385-4173-b7d0-8026be359de4" d="M69,47.89a33.14,33.14,0,0,1,3.82-4.39V41.33a22.61,22.61,0,0,0-4.92,5.15c-2.49-3.14-5.11-6-8.32-6-3.39,0-5.83,2.85-8.1,5.94-2.22-3-4.57-5.94-7.75-5.94a8,8,0,0,0-5,2.09v2.32c1.61-1.56,3.28-2.68,5-2.68,2.47,0,4.52,2.71,6.67,5.68-2.15,3-4.2,5.68-6.67,5.68-1.69,0-3.36-1.12-5-2.68v2.32a8,8,0,0,0,5,2.09c3.18,0,5.52-2.9,7.75-5.94,2.28,3.08,4.71,5.94,8.1,5.94,3.21,0,5.83-2.87,8.32-6a22.61,22.61,0,0,0,4.92,5.15V52.28A33.14,33.14,0,0,1,69,47.89Zm-9.42,5.68c-2.71,0-4.92-2.78-7-5.68,2.11-2.9,4.33-5.68,7-5.68,2.53,0,4.92,2.74,7.22,5.68C64.54,50.83,62.15,53.57,59.62,53.57Z"/></g></g></svg>